<svg height="48" width="48" xmlns="http://www.w3.org/2000/svg" xmlns:xlink="http://www.w3.org/1999/xlink"><radialGradient id="a" cx="23.857" cy="40" gradientTransform="matrix(1 0 0 .5 0 20)" gradientUnits="userSpaceOnUse" r="17.143"><stop offset="0"/><stop offset="1" stop-opacity="0"/></radialGradient><linearGradient id="b" gradientUnits="userSpaceOnUse" x1="43.936" x2="20.065" y1="53.836" y2="-8.5627"><stop offset="0" stop-color="#ffe69b"/><stop offset="1" stop-color="#fff"/></linearGradient><linearGradient id="c" gradientUnits="userSpaceOnUse" x1="21.988123" x2="20.907892" y1="34.076549" y2="15.882129"><stop offset="0" stop-color="#fffeff" stop-opacity=".33333"/><stop offset="1" stop-color="#fffeff" stop-opacity=".21569"/></linearGradient><path d="m41 40a17.143 8.5714 0 1 1-34.286 0 17.143 8.5714 0 1 1  34.286 0z" display="block" fill="url(#a)" opacity=".6" transform="matrix(1.0706 0 0 .525 -.89276 22.5)"/><path d="m46.857 23.929c0 12.9-10.457 23.357-23.357 23.357s-23.357-10.457-23.357-23.357 10.457-23.357 23.357-23.357 23.357 10.457 23.357 23.357z" fill="#73d216" stroke="#4e9a06" stroke-width="1.0864" transform="matrix(.92049 0 0 .92049 2.3685 .97408)"/><path d="m49.902 26.635c0 13.25-10.741 23.991-23.991 23.991s-23.991-10.741-23.991-23.991 10.741-23.991 23.991-23.991 23.991 10.741 23.991 23.991z" fill="none" opacity=".34659" stroke="url(#b)" stroke-width="1.1681" transform="matrix(.85609 0 0 .85609 1.8183 .19777)"/><path d="m14.707 25.178c.62921.000015 1.1052.5163 1.4278 1.5489.64534 1.9361 1.1052 2.9041 1.3794 2.9041.20973.000012.42753-.16133.65342-.48402 4.5336-7.2602 8.7284-13.133 12.584-17.618 1.0003-1.1616 2.5895-1.7424 4.7676-1.7425.51625.0000313.86313.048433 1.0406.1452.17744.096834.26618.21784.26621.36301-.000033.2259-.26624.66959-.79863 1.331-6.2277 7.4861-12.004 15.392-17.328 23.717-.37109.58082-1.1294.87124-2.2749.87123-1.1617.000005-1.8473-.0484-2.0571-.1452-.54856-.242-1.1939-1.4762-1.9361-3.7027-.83897-2.4685-1.2585-4.0173-1.2584-4.6466-.000008-.67761.56468-1.331 1.6941-1.9603.69375-.3872 1.3068-.5808 1.8393-.58082" fill="#eeeeec" stroke="#eeeeec"/><path d="m43.429 21.8c0 10.863-10.386-6.285-18.731.388-8.151 6.517-20.659 12.227-20.659 1.364.0004-11.118 8.722-21.431 19.585-21.431 10.863-.0002 19.805 8.816 19.805 19.679z" fill="url(#c)"/></svg>