<svg height="48" width="48" xmlns="http://www.w3.org/2000/svg" xmlns:xlink="http://www.w3.org/1999/xlink"><radialGradient id="a" cx="23.857143" cy="40" gradientTransform="matrix(1 0 0 .5 0 20)" gradientUnits="userSpaceOnUse" r="17.142857"><stop offset="0"/><stop offset="1" stop-opacity="0"/></radialGradient><linearGradient id="b" gradientUnits="userSpaceOnUse" x1="36.917976" x2="19.071495" y1="66.288063" y2="5.5410109"><stop offset="0" stop-color="#a40000"/><stop offset="1" stop-color="#ff1717"/></linearGradient><linearGradient id="c" gradientUnits="userSpaceOnUse" x1="43.93581" x2="20.064686" y1="53.835983" y2="-8.5626707"><stop offset="0" stop-color="#ffe69b"/><stop offset="1" stop-color="#fff"/></linearGradient><linearGradient id="d" gradientUnits="userSpaceOnUse" x1="21.993773" x2="20.917078" y1="33.955299" y2="15.814602"><stop offset="0" stop-color="#fffeff" stop-opacity=".33333334"/><stop offset="1" stop-color="#fffeff" stop-opacity=".21568628"/></linearGradient><path d="m41 40a17.142857 8.5714283 0 1 1-34.2857132 0 17.142857 8.5714283 0 1 1  34.2857132 0z" display="block" fill="url(#a)" opacity=".6" overflow="visible" transform="matrix(1.070555 0 0 .525 -.892755 22.5)"/><path d="m46.857143 23.928572a23.357143 23.357143 0 1 1-46.7142864 0 23.357143 23.357143 0 1 1  46.7142864 0z" fill="url(#b)" stroke="#b20000" stroke-width="1.08638" transform="matrix(.920488 0 0 .920488 2.368532 .97408)"/><path d="m49.901535 26.635273a23.991123 23.991123 0 1 1-47.9822464 0 23.991123 23.991123 0 1 1  47.9822464 0z" fill="none" opacity=".34659089" stroke="url(#c)" stroke-width="1.16809607" transform="matrix(.856093 0 0 .856093 1.818275 .197769)"/><path d="m10.078821 19.164932h27.836435v7.1735945h-27.836435z" fill="#efefef" transform="matrix(1.005876 0 0 1.115201 -.138045 -2.372708)"/><path d="m43.370686 21.715486c0 10.830616-10.354329-6.266308-18.674738.386388-8.126322 6.497511-20.5969643 12.190548-20.5969643 1.359932 0-11.084053 8.6953963-21.3670028 19.5260163-21.3670028 10.830619 0 19.745686 8.7900648 19.745686 19.6206828z" fill="url(#d)" transform="matrix(1.002994 0 0 1.002994 -.07185874 .01968356)"/></svg>